<svg width="200" height="200" viewBox="0 0 200 200" fill="none" xmlns="http://www.w3.org/2000/svg">
  <rect width="200" height="200" rx="40" fill="url(#grad)"/>
  <g transform="translate(100,100) scale(5.5)" stroke="white" stroke-width="2" stroke-linecap="round" stroke-linejoin="round" fill="none">
    <path d="m16 16 3-8 3 8c-.87.65-1.92 1-3 1s-2.13-.35-3-1Z" transform="translate(-12,-12)"/>
    <path d="m2 16 3-8 3 8c-.87.65-1.92 1-3 1s-2.13-.35-3-1Z" transform="translate(-12,-12)"/>
    <path d="M7 21h10" transform="translate(-12,-12)"/>
    <path d="M12 3v18" transform="translate(-12,-12)"/>
    <path d="M3 7h2c2 0 5-1 7-2 2 1 5 2 7 2h2" transform="translate(-12,-12)"/>
  </g>
  <defs>
    <linearGradient id="grad" x1="0" y1="0" x2="200" y2="200" gradientUnits="userSpaceOnUse">
      <stop stop-color="#8b5cf6"/>
      <stop offset="1" stop-color="#a855f7"/>
    </linearGradient>
  </defs>
</svg>
